<?xml version="1.0" standalone="no"?>
<!DOCTYPE svg PUBLIC "-//W3C//DTD SVG 20010904//EN"
 "http://www.w3.org/TR/2001/REC-SVG-20010904/DTD/svg10.dtd">
<svg version="1.0" xmlns="http://www.w3.org/2000/svg"
 width="1276.000000pt" height="1280.000000pt" viewBox="0 0 1276.000000 1280.000000"
 preserveAspectRatio="xMidYMid meet">
<metadata>
Created by potrace 1.15, written by Peter Selinger 2001-2017
</metadata>
<g transform="translate(0.000000,1280.000000) scale(0.100000,-0.100000)"
fill="#000000" stroke="none">
<path d="M5940 12789 c-743 -48 -1338 -180 -2005 -444 -619 -245 -1171 -575
-1650 -986 -244 -210 -576 -560 -796 -839 -368 -467 -718 -1073 -941 -1630
-460 -1145 -634 -2334 -507 -3464 74 -660 236 -1224 505 -1758 155 -306 1031
-1744 1051 -1724 9 9 -282 569 -567 1091 -151 275 -305 565 -343 645 -261 545
-415 1142 -467 1815 -16 202 -13 812 5 1035 94 1186 505 2371 1158 3345 556
831 1274 1477 2097 1890 1069 537 2187 741 3380 619 904 -92 1813 -409 2595
-902 385 -243 703 -500 1051 -847 939 -939 1536 -2152 1713 -3485 62 -467 54
-1158 -20 -1660 -88 -596 -284 -1215 -564 -1785 -116 -235 -214 -406 -370
-640 -509 -769 -1154 -1383 -1950 -1855 -221 -132 -281 -155 -730 -289 -541
-160 -959 -254 -1395 -313 -150 -20 -207 -22 -620 -23 -320 0 -482 4 -545 13
-481 69 -758 143 -1086 292 -431 195 -904 539 -1169 850 -150 177 -292 447
-351 670 -75 287 -66 679 27 1125 191 909 688 2217 1844 4845 391 889 1127
2531 1141 2545 7 6 114 -404 610 -2325 556 -2154 959 -3683 1239 -4700 61
-223 127 -463 146 -533 20 -70 34 -132 32 -138 -2 -6 -41 45 -88 113 -350 511
-813 1013 -1230 1334 -477 367 -1106 641 -1800 783 -296 60 -565 85 -565 51 0
-23 110 -72 366 -164 273 -98 498 -184 659 -252 164 -68 525 -250 655 -329
756 -460 1393 -1228 2066 -2492 193 -363 253 -447 349 -485 41 -16 160 -12
208 7 60 24 139 115 158 182 13 44 13 66 4 130 -13 88 -82 372 -193 793 -185
699 -309 1191 -753 2970 -201 806 -534 2140 -739 2965 -206 825 -402 1606
-435 1735 -33 129 -90 350 -126 490 -169 658 -196 737 -276 819 -56 56 -82 69
-165 81 -126 18 -149 15 -228 -35 -100 -62 -132 -102 -192 -235 -232 -516
-416 -924 -688 -1525 -1046 -2311 -1793 -4073 -2155 -5085 -372 -1039 -526
-1746 -507 -2330 11 -332 80 -596 239 -915 126 -255 263 -439 489 -660 318
-310 635 -531 1089 -759 322 -161 603 -253 988 -325 783 -146 1581 -109 2497
114 301 74 778 213 1040 305 337 118 908 479 1335 844 503 431 972 973 1303
1508 494 798 805 1641 931 2528 57 398 61 458 60 900 -1 447 -11 629 -50 895
-116 805 -280 1334 -630 2040 -620 1252 -1626 2261 -2879 2888 -800 400 -1614
617 -2540 677 -173 11 -534 11 -715 -1z"/>
</g>
</svg>
